<svg width="128" height="128" viewBox="0 0 128 128" fill="none" xmlns="http://www.w3.org/2000/svg">
<path d="M41.515 86.9658C41.2398 85.9392 40.86 85.0203 40.3756 84.2091C39.9022 83.3853 39.3297 82.6819 38.6582 82.0989C37.9977 81.5158 37.2381 81.0786 36.3794 80.7871C35.5207 80.4829 34.5849 80.3308 33.5721 80.3308C31.7556 80.3308 30.1373 80.8568 28.7172 81.9087C27.297 82.9607 26.1796 84.507 25.365 86.5475C24.5613 88.5754 24.1595 91.0469 24.1595 93.962C24.1595 96.9024 24.5613 99.3929 25.365 101.433C26.1686 103.474 27.286 105.027 28.7172 106.091C30.1483 107.143 31.8107 107.669 33.7042 107.669C35.4216 107.669 36.9078 107.289 38.1628 106.529C39.4288 105.768 40.4031 104.691 41.0857 103.297C41.7682 101.89 42.1095 100.242 42.1095 98.3536L43.4966 98.6008H34.3152V93.0875H48.0378V97.7643C48.0378 101.098 47.4213 103.981 46.1883 106.414C44.9553 108.848 43.2599 110.724 41.1022 112.042C38.9444 113.347 36.4674 114 33.6712 114C30.5557 114 27.8199 113.195 25.464 111.586C23.1191 109.963 21.2862 107.663 19.9651 104.684C18.655 101.693 18 98.1445 18 94.038C18 90.8948 18.3853 88.0875 19.1559 85.616C19.9376 83.1445 21.0274 81.0469 22.4256 79.3232C23.8237 77.5868 25.464 76.2687 27.3466 75.3688C29.2291 74.4563 31.2767 74 33.4895 74C35.361 74 37.1059 74.3169 38.7243 74.9506C40.3426 75.5716 41.7792 76.4588 43.0342 77.6122C44.3003 78.7655 45.3406 80.1343 46.1553 81.7186C46.9699 83.3029 47.5039 85.052 47.7571 86.9658H41.515Z" fill="#FFFF00"/>
<path d="M53.9619 113.468V74.5323H75.9577V80.4449H60.0884V91.0152H74.8183V96.9278H60.0884V107.555H76.0898V113.468H53.9619Z" fill="#FFFF00"/>
<path d="M110 74.5323V113.468H104.551L88.6152 86.9468H88.3345V113.468H82.208V74.5323H87.6905L103.609 101.072H103.907V74.5323H110Z" fill="#FFFF00"/>
<path d="M19 66V14H41.4904C45.4414 14 48.7593 14.5332 51.4439 15.5996C54.1455 16.666 56.1801 18.1725 57.5477 20.1191C58.9323 22.0658 59.6246 24.3594 59.6246 27C59.6246 28.9128 59.2024 30.6562 58.3582 32.2305C57.5309 33.8047 56.3658 35.125 54.8631 36.1914C53.3603 37.2409 51.6043 37.9688 49.595 38.375V38.8828C51.8238 38.9674 53.85 39.5345 55.6735 40.584C57.4971 41.6165 58.9492 43.0469 60.0298 44.875C61.1104 46.6862 61.6507 48.819 61.6507 51.2734C61.6507 54.1172 60.9078 56.6478 59.4219 58.8652C57.953 61.0827 55.8593 62.8262 53.1408 64.0957C50.4224 65.3652 47.1805 66 43.4153 66H19ZM33.0818 54.7266H39.6669C42.0307 54.7266 43.8036 54.2865 44.9855 53.4063C46.1675 52.5091 46.7584 51.1888 46.7584 49.4453C46.7584 48.2266 46.4798 47.194 45.9226 46.3477C45.3654 45.5013 44.5719 44.8581 43.5419 44.418C42.5288 43.9779 41.3047 43.7578 39.8695 43.7578H33.0818V54.7266ZM33.0818 35.0234H38.8564C40.089 35.0234 41.178 34.8288 42.1236 34.4395C43.0691 34.0501 43.8036 33.4915 44.327 32.7637C44.8673 32.0189 45.1375 31.1133 45.1375 30.0469C45.1375 28.4388 44.5634 27.2116 43.4153 26.3652C42.2671 25.502 40.815 25.0703 39.059 25.0703H33.0818V35.0234Z" fill="#FFFF00"/>
<path d="M66.6401 66V14H89.0292C92.8789 14 96.2474 14.7025 99.1347 16.1074C102.022 17.5124 104.268 19.5352 105.872 22.1758C107.476 24.8164 108.278 27.9818 108.278 31.6719C108.278 35.3958 107.45 38.5358 105.796 41.0918C104.158 43.6478 101.853 45.5775 98.8814 46.8809C95.9266 48.1842 92.4737 48.8359 88.5227 48.8359H75.15V37.8672H85.6861C87.3408 37.8672 88.7506 37.6641 89.9157 37.2578C91.0976 36.8346 92.0009 36.166 92.6257 35.252C93.2673 34.3379 93.5881 33.1445 93.5881 31.6719C93.5881 30.1823 93.2673 28.972 92.6257 28.041C92.0009 27.0931 91.0976 26.3991 89.9157 25.959C88.7506 25.502 87.3408 25.2734 85.6861 25.2734H80.722V66H66.6401ZM97.0326 42.1328L110 66H94.7025L82.039 42.1328H97.0326Z" fill="#FFFF00"/>
</svg>
